<?xml version="1.0" encoding="utf-8"?><svg viewBox="0 0 89.76 89.76" xmlns="http://www.w3.org/2000/svg" xmlns:xlink="http://www.w3.org/1999/xlink"><style>:root>svg{display:none}:root>svg:target{display:block}</style><svg viewBox="0 0 14 24" id="arrowLeft" xmlns="http://www.w3.org/2000/svg"><path d="M.94 13.06a1.5 1.5 0 010-2.12l9.545-9.547a1.5 1.5 0 112.122 2.122L4.12 12l8.486 8.485a1.5 1.5 0 11-2.122 2.122L.94 13.06zM3 13.5H2v-3h1v3z"/></svg><svg viewBox="0 0 14 24" id="arrowRight" xmlns="http://www.w3.org/2000/svg"><path d="M13.06 13.06a1.5 1.5 0 000-2.12L3.516 1.392a1.5 1.5 0 10-2.122 2.122L9.88 12l-8.486 8.485a1.5 1.5 0 102.122 2.122l9.546-9.546zM11 13.5h1v-3h-1v3z"/></svg><svg viewBox="0 0 24 24" id="eye" xmlns="http://www.w3.org/2000/svg"><path d="M12.015 7c4.751 0 8.063 3.012 9.504 4.636C20.118 13.473 16.806 17 12.015 17c-4.42 0-7.93-3.536-9.478-5.407C4.03 9.946 7.354 7 12.015 7zm0-2C4.446 5 0 11.551 0 11.551S4.835 19 12.015 19C19.748 19 24 11.551 24 11.551S19.709 5 12.015 5zM12 8a4 4 0 100 8 4 4 0 000-8zm-.004 3.999a1.446 1.446 0 11-2.044-2.046 1.446 1.446 0 012.044 2.046z"/></svg><svg viewBox="0 0 46 47" id="fb" xmlns="http://www.w3.org/2000/svg"><path d="M23 0C10.35 0 0 10.441 0 23.302 0 34.928 8.418 44.58 19.412 46.323V30.045H13.57v-6.744h5.842v-5.139c0-5.837 3.427-9.046 8.694-9.046 2.507 0 5.129.442 5.129.442v5.744h-2.898c-2.852 0-3.749 1.79-3.749 3.628v4.372h6.394l-1.035 6.743h-5.359v16.279a22.939 22.939 0 0013.915-7.883A23.41 23.41 0 0046 23.3C46 10.442 35.65 0 23 0z"/></svg><svg viewBox="0 0 24 24" id="heart" xmlns="http://www.w3.org/2000/svg"><path d="M12 4.435C10.011-.964 0-.162 0 8.003 0 12.071 3.06 17.484 12 23c8.94-5.516 12-10.929 12-14.997C24-.115 14-.996 12 4.435z"/></svg><svg viewBox="0 0 89.758 89.758" id="insta" xmlns="http://www.w3.org/2000/svg"><path d="M58.255 23.88H31.503c-4.27 0-7.744 3.474-7.744 7.744v26.752c0 4.27 3.474 7.745 7.744 7.745h26.752c4.27 0 7.745-3.474 7.745-7.745V31.624c0-4.27-3.474-7.744-7.745-7.744zM44.879 58.906c-7.667 0-13.905-6.238-13.905-13.906 0-7.667 6.238-13.905 13.905-13.905 7.668 0 13.906 6.238 13.906 13.905 0 7.667-6.239 13.906-13.906 13.906zM59.232 33.97a3.294 3.294 0 01-3.291-3.29 3.294 3.294 0 013.291-3.29 3.294 3.294 0 013.29 3.29 3.294 3.294 0 01-3.29 3.29z"/><path d="M44.879 36.971c-4.426 0-8.03 3.602-8.03 8.028 0 4.428 3.604 8.031 8.03 8.031 4.428 0 8.029-3.603 8.029-8.031 0-4.425-3.602-8.028-8.029-8.028z"/><path d="M44.879 0C20.094 0 0 20.094 0 44.879c0 24.785 20.094 44.879 44.879 44.879 24.785 0 44.879-20.094 44.879-44.879C89.758 20.094 69.664 0 44.879 0zm26.996 58.376c0 7.511-6.109 13.62-13.62 13.62H31.503c-7.51 0-13.62-6.109-13.62-13.62V31.624c0-7.51 6.11-13.62 13.62-13.62h26.752c7.511 0 13.62 6.11 13.62 13.62v26.752z"/></svg><svg viewBox="0 0 28 30" id="luna" xmlns="http://www.w3.org/2000/svg"><path d="M11.18.433a13.468 13.468 0 012.963-.302.51.51 0 01.495.526.522.522 0 01-.324.483c-2.084.856-3.752 2.453-4.775 4.43a10.076 10.076 0 00-.932 6.585l.002.017c.522 2.631 2.012 4.794 4.006 6.164 1.991 1.37 4.481 1.946 7.001 1.409l.016-.003a9.167 9.167 0 004.626-2.564 9.91 9.91 0 002.581-4.797.498.498 0 01.597-.39c.203.05.349.221.38.424a15.085 15.085 0 01-2.291 10.637c-1.976 2.993-5.02 5.227-8.7 6.017-3.786.813-7.53-.053-10.522-2.108C3.31 24.898 1.07 21.65.29 17.696A15.11 15.11 0 012.172 6.931C4.052 3.836 7.037 1.473 10.69.548c.071-.02.153-.039.242-.06h.002l.246-.055z"/></svg><svg viewBox="0 0 28 28" id="sun" xmlns="http://www.w3.org/2000/svg"><mask id="ha"><path d="M13.984 0a.999.999 0 00-.983 1.013V4.01a.998.998 0 101.998 0V1.013A1 1 0 0013.984 0zM4.806 3.81a1 1 0 00-.694 1.715L6.23 7.643A.999.999 0 107.643 6.23L5.524 4.111a1 1 0 00-.718-.302zm18.357 0a.999.999 0 00-.687.302l-2.12 2.12a.998.998 0 101.413 1.412l2.12-2.12a1 1 0 00-.726-1.714zM14 7.007a6.993 6.993 0 100 13.986 6.993 6.993 0 000-13.986zM1.013 13a1 1 0 100 1.998H4.01a1 1 0 100-1.998H1.013zm22.977 0a1 1 0 100 1.998h2.997a1 1 0 100-1.998H23.99zM6.917 20.054a.999.999 0 00-.686.303l-2.12 2.119a.999.999 0 101.413 1.412l2.12-2.119a.999.999 0 00-.727-1.715zm14.136 0a.998.998 0 00-.696 1.715l2.119 2.12a1 1 0 101.412-1.413l-2.119-2.12a.998.998 0 00-.716-.302zm-7.069 2.923a.999.999 0 00-.983 1.013v2.997a.997.997 0 001.385.936 1 1 0 00.613-.936V23.99a1 1 0 00-1.015-1.013z"/></mask><path d="M13.984 0a.999.999 0 00-.983 1.013V4.01a.998.998 0 101.998 0V1.013A1 1 0 0013.984 0zM4.806 3.81a1 1 0 00-.694 1.715L6.23 7.643A.999.999 0 107.643 6.23L5.524 4.111a1 1 0 00-.718-.302zm18.357 0a.999.999 0 00-.687.302l-2.12 2.12a.998.998 0 101.413 1.412l2.12-2.12a1 1 0 00-.726-1.714zM14 7.007a6.993 6.993 0 100 13.986 6.993 6.993 0 000-13.986zM1.013 13a1 1 0 100 1.998H4.01a1 1 0 100-1.998H1.013zm22.977 0a1 1 0 100 1.998h2.997a1 1 0 100-1.998H23.99zM6.917 20.054a.999.999 0 00-.686.303l-2.12 2.119a.999.999 0 101.413 1.412l2.12-2.119a.999.999 0 00-.727-1.715zm14.136 0a.998.998 0 00-.696 1.715l2.119 2.12a1 1 0 101.412-1.413l-2.119-2.12a.998.998 0 00-.716-.302zm-7.069 2.923a.999.999 0 00-.983 1.013v2.997a.997.997 0 001.385.936 1 1 0 00.613-.936V23.99a1 1 0 00-1.015-1.013z" mask="url(#ha)"/></svg><svg viewBox="0 0 46 47" id="vk" xmlns="http://www.w3.org/2000/svg"><path d="M23 0C10.298 0 0 10.37 0 23.162s10.298 23.162 23 23.162 23-10.37 23-23.162S35.702 0 23 0zm11.667 25.667c1.072 1.054 2.206 2.047 3.168 3.21.427.515.828 1.047 1.134 1.646.437.853.043 1.789-.716 1.84l-4.712-.001c-1.217.101-2.185-.393-3.002-1.231-.651-.668-1.256-1.38-1.884-2.071a4.383 4.383 0 00-.849-.76c-.642-.421-1.2-.292-1.568.383-.375.688-.46 1.45-.496 2.215-.052 1.12-.387 1.412-1.502 1.464-2.382.113-4.642-.251-6.742-1.46-1.854-1.068-3.288-2.573-4.538-4.278-2.434-3.323-4.298-6.97-5.973-10.722-.377-.845-.1-1.297.825-1.314 1.538-.03 3.075-.026 4.613-.002.626.01 1.04.37 1.28.966.832 2.059 1.85 4.018 3.127 5.835.34.484.688.966 1.183 1.308.546.377.962.252 1.219-.361.165-.39.236-.808.271-1.226.123-1.431.137-2.862-.074-4.288-.132-.893-.63-1.469-1.514-1.638-.45-.085-.384-.253-.165-.512.38-.447.736-.724 1.447-.724l5.323-.001c.84.166 1.028.545 1.142 1.396l.004 5.958c-.01.33.165 1.306.752 1.521.47.157.78-.223 1.062-.523 1.277-1.365 2.187-2.975 3.001-4.642.36-.735.67-1.495.971-2.258.224-.563.572-.84 1.204-.83l5.126.005c.152 0 .305.002.455.028.864.149 1.1.523.833 1.372-.42 1.333-1.238 2.444-2.037 3.558-.857 1.192-1.77 2.343-2.618 3.54-.78 1.095-.718 1.646.25 2.597z"/></svg></svg>