<svg width="46" height="47" viewBox="0 0 46 47" fill="none" xmlns="http://www.w3.org/2000/svg">
<path d="M23 0C10.35 0 0 10.4415 0 23.3015C0 34.929 8.41797 44.5798 19.412 46.3239V30.0453H13.57V23.3015H19.412V18.162C19.412 12.3251 22.839 9.11593 28.106 9.11593C30.613 9.11593 33.235 9.55779 33.235 9.55779V15.3018H30.337C27.485 15.3018 26.588 17.0924 26.588 18.9295V23.3015H32.982L31.947 30.0453H26.588V46.3239C32.0077 45.4584 36.943 42.6624 40.5028 38.4406C44.0624 34.2188 46.0122 28.8493 45.9999 23.3015C45.9999 10.4415 35.65 0 23 0Z" fill="white"/>
</svg>
