<svg width="28" height="30" viewBox="0 0 28 30" fill="none" xmlns="http://www.w3.org/2000/svg">
<path d="M11.1792 0.433361C11.6736 0.3263 12.1681 0.250168 12.6557 0.200206C13.1569 0.150244 13.6537 0.126453 14.1435 0.131211C14.4192 0.133591 14.6402 0.369124 14.638 0.656999C14.6357 0.878258 14.5013 1.06621 14.3144 1.13996C12.2296 1.99645 10.5617 3.59284 9.53869 5.5699C8.5316 7.51365 8.14881 9.82378 8.60679 12.1553L8.60907 12.172C9.13084 14.8033 10.621 16.9659 12.6147 18.3363C14.6061 19.7067 17.0965 20.2824 19.6165 19.7447L19.6324 19.7424C21.4461 19.3498 23.0251 18.4362 24.2578 17.1777C25.5337 15.8763 26.436 14.2085 26.8393 12.3813C26.9008 12.1006 27.1697 11.9269 27.4363 11.9912C27.639 12.0411 27.7849 12.2124 27.8168 12.4147C28.4183 16.2688 27.5092 20.0445 25.5246 23.0517C23.5491 26.0447 20.5051 28.2787 16.8253 29.0685C13.0385 29.8822 9.29489 29.0162 6.30323 26.9606C3.30929 24.8979 1.06953 21.6504 0.290289 17.6963C-0.470728 13.835 0.301681 10.0165 2.17232 6.93076C4.05208 3.83551 7.03691 1.47304 10.6893 0.547559C10.76 0.528526 10.842 0.509493 10.9309 0.488081H10.9331L11.1792 0.433361Z" fill="black"/>
</svg>
