<svg width="28" height="28" viewBox="0 0 28 28" fill="none" xmlns="http://www.w3.org/2000/svg">
<mask id="path-1-inside-1_160_38" fill="white">
<path d="M13.9844 0.000121855C13.7198 0.00425813 13.4676 0.113209 13.2833 0.303063C13.0989 0.492917 12.9974 0.748162 13.001 1.01278V4.00978C12.9991 4.14216 13.0236 4.27359 13.073 4.39643C13.1223 4.51928 13.1956 4.63109 13.2886 4.72536C13.3815 4.81964 13.4923 4.8945 13.6144 4.9456C13.7365 4.99669 13.8676 5.02301 14 5.02301C14.1324 5.02301 14.2635 4.99669 14.3856 4.9456C14.5077 4.8945 14.6185 4.81964 14.7114 4.72536C14.8044 4.63109 14.8777 4.51928 14.927 4.39643C14.9764 4.27359 15.0009 4.14216 14.999 4.00978V1.01278C15.0008 0.879124 14.9758 0.74646 14.9254 0.622644C14.8751 0.498828 14.8004 0.386377 14.7058 0.29195C14.6112 0.197523 14.4986 0.123041 14.3747 0.0729141C14.2508 0.0227871 14.118 -0.00196567 13.9844 0.000121855ZM4.80623 3.80881C4.60766 3.80925 4.41373 3.86885 4.24919 3.98C4.08465 4.09115 3.95696 4.24881 3.88242 4.43286C3.80788 4.6169 3.78987 4.81899 3.8307 5.01331C3.87152 5.20764 3.96932 5.3854 4.11162 5.52389L6.23056 7.64286C6.32261 7.73874 6.43287 7.81528 6.55487 7.86801C6.67688 7.92074 6.80818 7.9486 6.94108 7.94995C7.07398 7.9513 7.20582 7.92612 7.32887 7.87588C7.45192 7.82564 7.56371 7.75135 7.6577 7.65737C7.75168 7.56339 7.82596 7.4516 7.8762 7.32854C7.92644 7.20549 7.95162 7.07365 7.95027 6.94074C7.94892 6.80784 7.92106 6.67654 7.86833 6.55453C7.8156 6.43252 7.73906 6.32227 7.64319 6.23021L5.52425 4.11124C5.43092 4.01531 5.31928 3.9391 5.19593 3.88715C5.07259 3.8352 4.94007 3.80855 4.80623 3.80881ZM23.1626 3.80881C22.903 3.81654 22.6567 3.92501 22.4758 4.11124L20.3568 6.23021C20.2609 6.32227 20.1844 6.43252 20.1317 6.55453C20.0789 6.67654 20.0511 6.80784 20.0497 6.94074C20.0484 7.07365 20.0736 7.20549 20.1238 7.32854C20.174 7.45159 20.2483 7.56338 20.3423 7.65737C20.4363 7.75135 20.5481 7.82564 20.6711 7.87587C20.7942 7.92611 20.926 7.95129 21.0589 7.94994C21.1918 7.94859 21.3231 7.92074 21.4451 7.86801C21.5671 7.81528 21.6774 7.73873 21.7694 7.64286L23.8884 5.52389C24.0327 5.38357 24.1313 5.20291 24.1713 5.00558C24.2112 4.80826 24.1905 4.60348 24.1121 4.41808C24.0336 4.23268 23.901 4.07531 23.7315 3.96659C23.5621 3.85787 23.3638 3.80287 23.1626 3.80881ZM14 7.00678C12.1454 7.00678 10.3667 7.74354 9.05528 9.05498C7.74386 10.3664 7.00711 12.1451 7.00711 13.9998C7.00711 15.8544 7.74386 17.6331 9.05528 18.9446C10.3667 20.256 12.1454 20.9928 14 20.9928C15.8546 20.9928 17.6333 20.256 18.9447 18.9446C20.2561 17.6331 20.9929 15.8544 20.9929 13.9998C20.9929 12.1451 20.2561 10.3664 18.9447 9.05498C17.6333 7.74354 15.8546 7.00678 14 7.00678ZM1.01321 13.0008C0.880834 12.9989 0.749405 13.0234 0.626562 13.0727C0.503719 13.1221 0.391911 13.1954 0.297638 13.2883C0.203364 13.3813 0.128504 13.492 0.0774082 13.6142C0.0263124 13.7363 0 13.8674 0 13.9998C0 14.1322 0.0263124 14.2632 0.0774082 14.3854C0.128504 14.5075 0.203364 14.6183 0.297638 14.7112C0.391911 14.8042 0.503719 14.8775 0.626562 14.9268C0.749405 14.9762 0.880834 15.0006 1.01321 14.9988H4.01016C4.14254 15.0006 4.27397 14.9762 4.39681 14.9268C4.51966 14.8775 4.63146 14.8042 4.72574 14.7112C4.82001 14.6183 4.89487 14.5075 4.94597 14.3854C4.99706 14.2632 5.02338 14.1322 5.02338 13.9998C5.02338 13.8674 4.99706 13.7363 4.94597 13.6142C4.89487 13.492 4.82001 13.3813 4.72574 13.2883C4.63146 13.1954 4.51966 13.1221 4.39681 13.0727C4.27397 13.0234 4.14254 12.9989 4.01016 13.0008H1.01321ZM23.9898 13.0008C23.8575 12.9989 23.726 13.0234 23.6032 13.0727C23.4803 13.1221 23.3685 13.1954 23.2743 13.2883C23.18 13.3813 23.1051 13.492 23.054 13.6142C23.0029 13.7363 22.9766 13.8674 22.9766 13.9998C22.9766 14.1322 23.0029 14.2632 23.054 14.3854C23.1051 14.5075 23.18 14.6183 23.2743 14.7112C23.3685 14.8042 23.4803 14.8775 23.6032 14.9268C23.726 14.9762 23.8575 15.0006 23.9898 14.9988H26.9868C27.1192 15.0006 27.2506 14.9762 27.3734 14.9268C27.4963 14.8775 27.6081 14.8042 27.7024 14.7112C27.7966 14.6183 27.8715 14.5075 27.9226 14.3854C27.9737 14.2632 28 14.1322 28 13.9998C28 13.8674 27.9737 13.7363 27.9226 13.6142C27.8715 13.492 27.7966 13.3813 27.7024 13.2883C27.6081 13.1954 27.4963 13.1221 27.3734 13.0727C27.2506 13.0234 27.1192 12.9989 26.9868 13.0008H23.9898ZM6.91736 20.0543C6.65783 20.062 6.4115 20.1705 6.23056 20.3567L4.11162 22.4757C4.01575 22.5677 3.93921 22.678 3.88648 22.8C3.83375 22.922 3.80589 23.0533 3.80454 23.1862C3.80319 23.3191 3.82837 23.4509 3.87861 23.574C3.92885 23.697 4.00313 23.8088 4.09712 23.9028C4.1911 23.9968 4.30289 24.0711 4.42594 24.1213C4.54899 24.1716 4.68083 24.1967 4.81373 24.1954C4.94663 24.194 5.07793 24.1662 5.19994 24.1135C5.32194 24.0607 5.4322 23.9842 5.52425 23.8883L7.64319 21.7693C7.78754 21.629 7.88614 21.4484 7.92606 21.251C7.96598 21.0537 7.94536 20.8489 7.86689 20.6635C7.78843 20.4781 7.65579 20.3208 7.48636 20.212C7.31692 20.1033 7.11859 20.0483 6.91736 20.0543ZM21.0534 20.0543C20.8546 20.0543 20.6604 20.1136 20.4956 20.2246C20.3308 20.3356 20.2028 20.4933 20.128 20.6774C20.0532 20.8615 20.035 21.0638 20.0758 21.2583C20.1166 21.4528 20.2144 21.6307 20.3568 21.7693L22.4758 23.8883C22.5678 23.9842 22.6781 24.0607 22.8001 24.1135C22.9221 24.1662 23.0534 24.194 23.1863 24.1954C23.3192 24.1967 23.451 24.1716 23.5741 24.1213C23.6971 24.0711 23.8089 23.9968 23.9029 23.9028C23.9969 23.8088 24.0711 23.697 24.1214 23.574C24.1716 23.4509 24.1968 23.3191 24.1955 23.1862C24.1941 23.0533 24.1662 22.922 24.1135 22.8C24.0608 22.678 23.9842 22.5677 23.8884 22.4757L21.7694 20.3567C21.6763 20.261 21.565 20.1849 21.442 20.133C21.319 20.081 21.1869 20.0543 21.0534 20.0543ZM13.9844 22.9771C13.7198 22.9813 13.4676 23.0902 13.2833 23.2801C13.0989 23.4699 12.9974 23.7252 13.001 23.9898V26.9868C12.9991 27.1192 13.0236 27.2506 13.073 27.3734C13.1223 27.4963 13.1956 27.6081 13.2886 27.7024C13.3815 27.7966 13.4923 27.8715 13.6144 27.9226C13.7365 27.9737 13.8676 28 14 28C14.1324 28 14.2635 27.9737 14.3856 27.9226C14.5077 27.8715 14.6185 27.7966 14.7114 27.7024C14.8044 27.6081 14.8777 27.4963 14.927 27.3734C14.9764 27.2506 15.0009 27.1192 14.999 26.9868V23.9898C15.0008 23.8561 14.9758 23.7235 14.9254 23.5996C14.8751 23.4758 14.8004 23.3634 14.7058 23.2689C14.6112 23.1745 14.4986 23.1 14.3747 23.0499C14.2508 22.9998 14.118 22.975 13.9844 22.9771Z"/>
</mask>
<path d="M13.9844 0.000121855C13.7198 0.00425813 13.4676 0.113209 13.2833 0.303063C13.0989 0.492917 12.9974 0.748162 13.001 1.01278V4.00978C12.9991 4.14216 13.0236 4.27359 13.073 4.39643C13.1223 4.51928 13.1956 4.63109 13.2886 4.72536C13.3815 4.81964 13.4923 4.8945 13.6144 4.9456C13.7365 4.99669 13.8676 5.02301 14 5.02301C14.1324 5.02301 14.2635 4.99669 14.3856 4.9456C14.5077 4.8945 14.6185 4.81964 14.7114 4.72536C14.8044 4.63109 14.8777 4.51928 14.927 4.39643C14.9764 4.27359 15.0009 4.14216 14.999 4.00978V1.01278C15.0008 0.879124 14.9758 0.74646 14.9254 0.622644C14.8751 0.498828 14.8004 0.386377 14.7058 0.29195C14.6112 0.197523 14.4986 0.123041 14.3747 0.0729141C14.2508 0.0227871 14.118 -0.00196567 13.9844 0.000121855ZM4.80623 3.80881C4.60766 3.80925 4.41373 3.86885 4.24919 3.98C4.08465 4.09115 3.95696 4.24881 3.88242 4.43286C3.80788 4.6169 3.78987 4.81899 3.8307 5.01331C3.87152 5.20764 3.96932 5.3854 4.11162 5.52389L6.23056 7.64286C6.32261 7.73874 6.43287 7.81528 6.55487 7.86801C6.67688 7.92074 6.80818 7.9486 6.94108 7.94995C7.07398 7.9513 7.20582 7.92612 7.32887 7.87588C7.45192 7.82564 7.56371 7.75135 7.6577 7.65737C7.75168 7.56339 7.82596 7.4516 7.8762 7.32854C7.92644 7.20549 7.95162 7.07365 7.95027 6.94074C7.94892 6.80784 7.92106 6.67654 7.86833 6.55453C7.8156 6.43252 7.73906 6.32227 7.64319 6.23021L5.52425 4.11124C5.43092 4.01531 5.31928 3.9391 5.19593 3.88715C5.07259 3.8352 4.94007 3.80855 4.80623 3.80881ZM23.1626 3.80881C22.903 3.81654 22.6567 3.92501 22.4758 4.11124L20.3568 6.23021C20.2609 6.32227 20.1844 6.43252 20.1317 6.55453C20.0789 6.67654 20.0511 6.80784 20.0497 6.94074C20.0484 7.07365 20.0736 7.20549 20.1238 7.32854C20.174 7.45159 20.2483 7.56338 20.3423 7.65737C20.4363 7.75135 20.5481 7.82564 20.6711 7.87587C20.7942 7.92611 20.926 7.95129 21.0589 7.94994C21.1918 7.94859 21.3231 7.92074 21.4451 7.86801C21.5671 7.81528 21.6774 7.73873 21.7694 7.64286L23.8884 5.52389C24.0327 5.38357 24.1313 5.20291 24.1713 5.00558C24.2112 4.80826 24.1905 4.60348 24.1121 4.41808C24.0336 4.23268 23.901 4.07531 23.7315 3.96659C23.5621 3.85787 23.3638 3.80287 23.1626 3.80881ZM14 7.00678C12.1454 7.00678 10.3667 7.74354 9.05528 9.05498C7.74386 10.3664 7.00711 12.1451 7.00711 13.9998C7.00711 15.8544 7.74386 17.6331 9.05528 18.9446C10.3667 20.256 12.1454 20.9928 14 20.9928C15.8546 20.9928 17.6333 20.256 18.9447 18.9446C20.2561 17.6331 20.9929 15.8544 20.9929 13.9998C20.9929 12.1451 20.2561 10.3664 18.9447 9.05498C17.6333 7.74354 15.8546 7.00678 14 7.00678ZM1.01321 13.0008C0.880834 12.9989 0.749405 13.0234 0.626562 13.0727C0.503719 13.1221 0.391911 13.1954 0.297638 13.2883C0.203364 13.3813 0.128504 13.492 0.0774082 13.6142C0.0263124 13.7363 0 13.8674 0 13.9998C0 14.1322 0.0263124 14.2632 0.0774082 14.3854C0.128504 14.5075 0.203364 14.6183 0.297638 14.7112C0.391911 14.8042 0.503719 14.8775 0.626562 14.9268C0.749405 14.9762 0.880834 15.0006 1.01321 14.9988H4.01016C4.14254 15.0006 4.27397 14.9762 4.39681 14.9268C4.51966 14.8775 4.63146 14.8042 4.72574 14.7112C4.82001 14.6183 4.89487 14.5075 4.94597 14.3854C4.99706 14.2632 5.02338 14.1322 5.02338 13.9998C5.02338 13.8674 4.99706 13.7363 4.94597 13.6142C4.89487 13.492 4.82001 13.3813 4.72574 13.2883C4.63146 13.1954 4.51966 13.1221 4.39681 13.0727C4.27397 13.0234 4.14254 12.9989 4.01016 13.0008H1.01321ZM23.9898 13.0008C23.8575 12.9989 23.726 13.0234 23.6032 13.0727C23.4803 13.1221 23.3685 13.1954 23.2743 13.2883C23.18 13.3813 23.1051 13.492 23.054 13.6142C23.0029 13.7363 22.9766 13.8674 22.9766 13.9998C22.9766 14.1322 23.0029 14.2632 23.054 14.3854C23.1051 14.5075 23.18 14.6183 23.2743 14.7112C23.3685 14.8042 23.4803 14.8775 23.6032 14.9268C23.726 14.9762 23.8575 15.0006 23.9898 14.9988H26.9868C27.1192 15.0006 27.2506 14.9762 27.3734 14.9268C27.4963 14.8775 27.6081 14.8042 27.7024 14.7112C27.7966 14.6183 27.8715 14.5075 27.9226 14.3854C27.9737 14.2632 28 14.1322 28 13.9998C28 13.8674 27.9737 13.7363 27.9226 13.6142C27.8715 13.492 27.7966 13.3813 27.7024 13.2883C27.6081 13.1954 27.4963 13.1221 27.3734 13.0727C27.2506 13.0234 27.1192 12.9989 26.9868 13.0008H23.9898ZM6.91736 20.0543C6.65783 20.062 6.4115 20.1705 6.23056 20.3567L4.11162 22.4757C4.01575 22.5677 3.93921 22.678 3.88648 22.8C3.83375 22.922 3.80589 23.0533 3.80454 23.1862C3.80319 23.3191 3.82837 23.4509 3.87861 23.574C3.92885 23.697 4.00313 23.8088 4.09712 23.9028C4.1911 23.9968 4.30289 24.0711 4.42594 24.1213C4.54899 24.1716 4.68083 24.1967 4.81373 24.1954C4.94663 24.194 5.07793 24.1662 5.19994 24.1135C5.32194 24.0607 5.4322 23.9842 5.52425 23.8883L7.64319 21.7693C7.78754 21.629 7.88614 21.4484 7.92606 21.251C7.96598 21.0537 7.94536 20.8489 7.86689 20.6635C7.78843 20.4781 7.65579 20.3208 7.48636 20.212C7.31692 20.1033 7.11859 20.0483 6.91736 20.0543ZM21.0534 20.0543C20.8546 20.0543 20.6604 20.1136 20.4956 20.2246C20.3308 20.3356 20.2028 20.4933 20.128 20.6774C20.0532 20.8615 20.035 21.0638 20.0758 21.2583C20.1166 21.4528 20.2144 21.6307 20.3568 21.7693L22.4758 23.8883C22.5678 23.9842 22.6781 24.0607 22.8001 24.1135C22.9221 24.1662 23.0534 24.194 23.1863 24.1954C23.3192 24.1967 23.451 24.1716 23.5741 24.1213C23.6971 24.0711 23.8089 23.9968 23.9029 23.9028C23.9969 23.8088 24.0711 23.697 24.1214 23.574C24.1716 23.4509 24.1968 23.3191 24.1955 23.1862C24.1941 23.0533 24.1662 22.922 24.1135 22.8C24.0608 22.678 23.9842 22.5677 23.8884 22.4757L21.7694 20.3567C21.6763 20.261 21.565 20.1849 21.442 20.133C21.319 20.081 21.1869 20.0543 21.0534 20.0543ZM13.9844 22.9771C13.7198 22.9813 13.4676 23.0902 13.2833 23.2801C13.0989 23.4699 12.9974 23.7252 13.001 23.9898V26.9868C12.9991 27.1192 13.0236 27.2506 13.073 27.3734C13.1223 27.4963 13.1956 27.6081 13.2886 27.7024C13.3815 27.7966 13.4923 27.8715 13.6144 27.9226C13.7365 27.9737 13.8676 28 14 28C14.1324 28 14.2635 27.9737 14.3856 27.9226C14.5077 27.8715 14.6185 27.7966 14.7114 27.7024C14.8044 27.6081 14.8777 27.4963 14.927 27.3734C14.9764 27.2506 15.0009 27.1192 14.999 26.9868V23.9898C15.0008 23.8561 14.9758 23.7235 14.9254 23.5996C14.8751 23.4758 14.8004 23.3634 14.7058 23.2689C14.6112 23.1745 14.4986 23.1 14.3747 23.0499C14.2508 22.9998 14.118 22.975 13.9844 22.9771Z" stroke="white" stroke-width="2" mask="url(#path-1-inside-1_160_38)"/>
</svg>
