<svg width="46" height="47" viewBox="0 0 46 47" fill="none" xmlns="http://www.w3.org/2000/svg">
<path d="M23 0C10.2979 0 0 10.3699 0 23.1619C0 35.9539 10.2979 46.3239 23 46.3239C35.7021 46.3239 46 35.9539 46 23.1619C46 10.3699 35.7021 0 23 0ZM34.6668 25.667C35.7388 26.7215 36.873 27.7137 37.8353 28.8772C38.2616 29.3919 38.6635 29.924 38.9694 30.5226C39.4061 31.3761 39.0118 32.312 38.2531 32.3628L33.5412 32.3618C32.3242 32.4631 31.3557 31.9689 30.5392 31.131C29.8876 30.4633 29.2828 29.7501 28.6551 29.0596C28.3986 28.7762 28.1285 28.5094 27.8065 28.2996C27.1642 27.8786 26.6061 28.0076 26.2381 28.6834C25.863 29.371 25.7775 30.133 25.7416 30.8983C25.6904 32.0172 25.3554 32.3097 24.2405 32.3623C21.8583 32.4746 19.5981 32.1106 17.4975 30.9013C15.6443 29.8344 14.2099 28.3289 12.96 26.6243C10.5261 23.3012 8.66212 19.6541 6.98729 15.9022C6.61035 15.0573 6.88612 14.6052 7.81177 14.5876C9.34965 14.5578 10.8875 14.5616 12.4254 14.5862C13.0513 14.5962 13.4654 14.9568 13.7059 15.5515C14.5369 17.6106 15.5558 19.5698 16.8325 21.3866C17.1727 21.8706 17.52 22.353 18.0145 22.6947C18.5605 23.0719 18.9765 22.9473 19.2338 22.3335C19.3987 21.9435 19.4697 21.5265 19.5054 21.1085C19.6277 19.6768 19.6423 18.2457 19.4306 16.8197C19.2988 15.9274 18.8005 15.3511 17.9172 15.1824C17.4673 15.0966 17.5332 14.9288 17.752 14.6701C18.1318 14.2227 18.4876 13.946 19.1986 13.946L24.5223 13.945C25.3615 14.1109 25.5496 14.49 25.6636 15.3411L25.6683 21.2991C25.6583 21.6285 25.8325 22.6047 26.4198 22.8202C26.8904 22.9766 27.2009 22.5966 27.4824 22.2966C28.759 20.9322 29.6688 19.3218 30.4833 17.6553C30.8428 16.9201 31.1529 16.1596 31.4542 15.3975C31.6781 14.8341 32.0264 14.5568 32.6579 14.5663L37.7844 14.5725C37.9356 14.5725 38.0889 14.5739 38.2386 14.6C39.1026 14.7488 39.3394 15.1231 39.0719 15.9718C38.6513 17.3055 37.8339 18.4162 37.0348 19.53C36.1784 20.7224 35.265 21.8729 34.4169 23.0705C33.6377 24.1651 33.6993 24.7162 34.6668 25.667Z" fill="white"/>
</svg>
